<?xml version="1.0" ?><svg enable-background="new 0 0 52 52" id="Layer_1" version="1.1" viewBox="0 0 52 52" xml:space="preserve" xmlns="http://www.w3.org/2000/svg" xmlns:xlink="http://www.w3.org/1999/xlink"><g><path d="M49.0899963,22.7700195l1.0700073-0.2800293L45.5299988,10h-5.6900024V7h-8v3H9.8352966V8h-2v2H5.8399963   c-2.2099609,0-4,1.710022-4,3.7999878c0,1.960022,1.5599976,3.5499878,3.5100098,3.6000366L5.9200134,24h0.9100342   c0.1324463,0,8.5377197,0.0239258,15.4367065,0.1219482c0.0696411,1.5244141,0.5177002,4.5704956,2.8327026,7.0245361   c2.116394,2.2438354,5.244812,3.4060669,9.2888794,3.4822998L35.980011,45l13.960022-0.0300293L46.9900208,27.210022   C46.5299988,23.6199951,48.8399963,22.8499756,49.0899963,22.7700195z M26.5691833,29.7895508   c-1.8190918-1.9170532-2.2160034-4.3709717-2.2942505-5.6359863c3.1552734,0.0549927,5.7285156,0.128479,6.5950928,0.2264404   c2.0200195,0.2299805,2.2700195,2.0499878,2.2999878,2.3099976l0.9105835,5.9334106   C30.7684021,32.5043335,28.2457581,31.5569458,26.5691833,29.7895508z"/></g></svg>