<?xml version="1.0" ?><svg id="Layer_1" style="enable-background:new 0 0 128 128;" version="1.1" viewBox="0 0 128 128" xml:space="preserve" xmlns="http://www.w3.org/2000/svg" xmlns:xlink="http://www.w3.org/1999/xlink"><path d="M124,60h-9.77c-1.48,0-2.72-1.06-2.96-2.52l-0.52-3.22C106.58,28.61,84.69,10,58.71,10C29.65,10,6,33.65,6,62.71  C6,69.7,7.61,76.7,10.65,83l-4.33,8.66c-0.47,0.93-0.42,2.03,0.13,2.92C6.99,95.46,7.96,96,9,96h58.15l9.17,18.34  C76.84,115.39,77.9,116,79,116c0.45,0,0.91-0.1,1.34-0.32c1.48-0.74,2.08-2.54,1.34-4.02l-8.82-17.63L114.72,66H124  c1.66,0,3-1.34,3-3S125.66,60,124,60z M68.09,90H13.85l2.83-5.66c0.42-0.84,0.42-1.84,0-2.68l-0.4-0.8  C13.48,75.25,12,68.98,12,62.71C12,36.96,32.96,16,58.71,16c23.02,0,42.42,16.49,46.11,39.22l0.52,3.22  c0.31,1.93,1.22,3.63,2.52,4.93L68.09,90z"/><g><path d="M54,78c7.72,0,14-6.28,14-14v-8c0-3.31-2.69-6-6-6H46c-3.31,0-6,2.69-6,6v8C40,71.72,46.28,78,54,78z"/></g></svg>